<svg width="82" height="71" viewBox="0 0 82 71" fill="none" xmlns="http://www.w3.org/2000/svg">
<g clip-path="url(#clip0_485_23706)">
<path d="M65.9106 0C65.9106 3.05925 65.9106 6.0675 65.9106 9.15224C65.7324 9.15224 65.5542 9.15224 65.376 9.15224C63.0084 9.15224 60.6408 9.10126 58.2987 9.20323C54.9891 9.3307 52.1888 11.9566 51.6796 15.2197C51.6032 15.7806 51.5523 16.3415 51.5523 16.9023C51.5523 29.3178 51.5523 41.7332 51.5523 54.1487C51.5523 57.1314 52.7743 59.4513 55.3455 60.981C56.262 61.5163 57.2549 61.7968 58.3241 61.8478C59.6988 61.8987 61.0736 61.8987 62.4483 61.8987C63.5939 61.8987 64.7395 61.8987 65.9106 61.8987C65.9106 64.9835 65.9106 67.9917 65.9106 71.051C65.8087 71.0765 65.6815 71.102 65.5796 71.102C62.8811 71.0765 60.1571 71.1275 57.4585 71.0255C54.6582 70.9235 51.9851 70.3372 49.5157 68.935C46.0534 66.9465 44.0931 63.8873 43.1512 60.0887C42.6929 58.2022 42.4638 56.2646 42.4638 54.3271C42.4638 41.7842 42.4384 29.2668 42.4638 16.7239C42.4638 13.7156 42.8966 10.7329 44.195 7.97953C46.0025 4.07899 49.1083 1.73357 53.2071 0.662837C54.9637 0.20395 56.7457 0.0254937 58.5532 0.0254937C60.8444 0.0254937 63.1357 0.0254937 65.4014 0.0254937C65.5542 0 65.7069 0 65.9106 0Z" fill="#1b39c9"/>
<path d="M72.937 22.0776C75.9665 22.0776 78.9705 22.0776 82 22.0776C82 38.3936 82 54.6841 82 71.0001C78.996 71.0001 75.9665 71.0001 72.937 71.0001C72.937 54.6841 72.937 38.4191 72.937 22.0776Z" fill="#1b39c9"/>
<path d="M37.0668 39.031C36.5321 35.6658 35.5393 32.4791 33.7063 29.5728C32.1788 27.1254 30.1931 25.1369 27.5964 23.8367C24.9742 22.511 22.1739 22.1031 19.2971 22.1031C13.0345 22.0776 6.77181 22.1031 0.483701 22.1031C0.330953 22.1031 0.152748 22.1031 0 22.1031C0 38.4956 0 54.8116 0 71.204C0.12729 71.204 0.229121 71.204 0.305495 71.204C6.79727 71.204 13.2636 71.204 19.7554 71.204C21.2065 71.204 22.6576 70.9746 24.0577 70.5922C28.1565 69.445 31.1605 66.8956 33.3499 63.2755C35.8702 59.069 37.0158 54.4547 37.4232 49.6108C37.7287 46.0417 37.6014 42.5236 37.0668 39.031ZM27.9528 49.6618C27.6219 52.7721 26.96 55.7548 25.2543 58.4317C23.4977 61.2105 20.9519 62.5871 17.6678 62.5871C14.9693 62.5871 12.2453 62.5871 9.54673 62.5871C9.39398 62.5871 9.21577 62.5871 9.03757 62.5871C9.03757 51.9308 9.03757 41.2744 9.03757 30.5925C9.21577 30.5925 9.36852 30.5925 9.52127 30.5925C12.3471 30.5925 15.1475 30.5415 17.9733 30.618C19.1444 30.6435 20.3154 30.822 21.461 31.1024C23.8286 31.6888 25.4834 33.1674 26.4253 35.4363C27.3164 37.5778 27.7491 39.7958 27.9783 42.0902C28.1819 44.6141 28.2328 47.138 27.9528 49.6618Z" fill="#1b39c9"/>
</g>
<defs>
<clipPath id="clip0_485_23706">
<rect width="82" height="71" fill="#1b39c9"/>
</clipPath>
</defs>
</svg>
