<svg xmlns="http://www.w3.org/2000/svg" viewBox="0 0 176.2 40.2">
                      <title>Logo MIR MEDIA, Digital Agency, Cologne</title>
                      <path fill="#FFFFFF" class="mir-logo__point" d="M131.4 4.5h-.4c-.1 0-.3-.1-.4-.1-.1 0-.3-.1-.4-.2l-.3-.3c-.2-.2-.4-.5-.5-.7-.1-.3-.2-.6-.2-.9 0-.6.2-1.2.7-1.6l.3-.3c.1-.1.3-.2.4-.2.1-.1.3-.1.4-.1.3-.1.6-.1.9 0 .1 0 .3.1.4.1.1 0 .3.1.4.2.1.1.2.2.4.3.4.4.7 1 .7 1.6 0 .3-.1.6-.2.9-.1.3-.3.5-.5.7-.1.1-.2.2-.4.3-.1.1-.3.2-.4.2-.1.1-.3.1-.4.1h-.5z" data-svg-origin="129.20001220703125 0.02500014752149582" transform="matrix(1,0,0,1,0,0)" style="transform-origin: 0px 0px; opacity: 1;"></path>
                      <path fill="none" class="mir-logo__line" stroke="#FFFFFF" stroke-width="3.5" stroke-linecap="round" stroke-linejoin="round" stroke-miterlimit="10" d="M1.8 38.4l43.5-18.1v18.1l43-18.1v18.1l43.2-18.1v18.1l43-18.1" style="stroke-dashoffset: 0px;"></path>
                    </svg>